<?xml version="1.0" standalone="no"?>
<!DOCTYPE svg PUBLIC "-//W3C//DTD SVG 20010904//EN"
 "http://www.w3.org/TR/2001/REC-SVG-20010904/DTD/svg10.dtd">
<svg version="1.0" xmlns="http://www.w3.org/2000/svg"
 width="184.000000pt" height="184.000000pt" viewBox="0 0 184.000000 184.000000"
 preserveAspectRatio="xMidYMid meet">
<metadata>
Created by potrace 1.14, written by Peter Selinger 2001-2017
</metadata>
<g transform="translate(0.000000,184.000000) scale(0.100000,-0.100000)"
fill="#000000" stroke="none">
<path d="M837 1284 c-1 -1 -38 -5 -82 -8 -44 -4 -93 -9 -110 -12 -16 -3 -43
-7 -60 -9 -72 -8 -274 -57 -335 -82 -8 -4 -17 -7 -20 -8 -31 -8 -60 -21 -82
-36 -28 -20 -29 -38 -8 -94 19 -51 14 -62 -40 -75 -60 -14 -83 -34 -75 -64 18
-66 28 -103 33 -116 3 -8 6 -17 6 -20 15 -70 54 -179 67 -190 17 -13 119 -15
794 -14 470 0 779 4 784 10 8 8 47 123 56 164 2 8 15 55 29 104 18 61 23 93
16 101 -6 7 -37 20 -68 29 -58 16 -69 30 -49 62 3 6 9 29 13 51 6 37 3 43 -19
58 -14 9 -32 18 -39 19 -7 2 -20 6 -28 9 -43 17 -163 52 -215 63 -57 12 -115
23 -155 29 -25 3 -52 8 -60 10 -36 10 -345 26 -353 19z"/>
</g>
</svg>
